<svg width="100%" height="100%" viewBox="0 0 623 981" fill="none" xmlns="http://www.w3.org/2000/svg">
<path fill-rule="evenodd" clip-rule="evenodd" d="M620.499 -2.53613e-05C651.063 38.9211 505.2 325.042 446.391 404.651C387.582 484.26 308.966 551.385 205.181 631.656C101.396 711.928 72.5716 791.095 43.7471 870.263C14.9226 949.43 14.746 949.916 0.333722 989.5L620.499 989.5C619.92 950.137 621.659 934.726 620.499 856C619.34 777.275 621.659 710.382 620.499 631.656C619.34 552.931 621.659 460.226 620.499 381.5C619.34 302.774 621.079 236.863 620.499 197.5L620.499 153.5L620.499 -2.53613e-05Z" fill="#1B4375"/>
</svg>
