<svg width="842" height="768" viewBox="0 0 842 768" fill="none" xmlns="http://www.w3.org/2000/svg">
<g opacity="0.7" clip-path="url(#clip0_1_9)">
<path d="M775.705 186.69C680.14 23.3935 478.263 -42.8466 279.723 28.4956C174.761 66.212 73.5583 141.783 23.4046 288.112C-66.2504 549.69 121.992 633.232 245.081 659.858C304.601 672.733 360.658 694.36 411.884 723.805C504.044 776.779 667.173 823.719 790.183 603.058C879.34 443.121 839.361 295.461 775.705 186.69Z" fill="#F2F2F2"/>
<path d="M221.65 218.997C221.382 216.402 220.842 213.861 220.041 211.436C219.939 210.978 219.76 210.55 219.516 210.182C219.272 209.813 218.969 209.51 218.624 209.293C218.164 209.146 217.681 209.14 217.218 209.274L210 210.63C209.395 210.664 208.817 210.94 208.353 211.416C207.412 212.63 208.338 214.585 208.309 216.26C208.277 218.144 206.914 219.673 205.436 220.179C203.928 220.553 202.371 220.529 200.871 220.109L190.777 218.183C193.75 217.018 196.396 214.849 198.413 211.926C199.741 209.993 200.448 206.386 198.528 205.471C197.958 205.279 197.363 205.22 196.775 205.298C192.202 205.342 188.603 200.653 184.322 198.678C181.582 197.496 178.607 197.408 175.824 198.427C173.041 199.446 170.591 201.519 168.826 204.351L174.203 204.669C174.708 204.635 175.21 204.799 175.635 205.138C176.813 206.327 175.348 208.611 175.514 210.472C175.73 212.891 178.345 213.408 180.317 213.652C182.288 213.897 184.789 215.864 183.841 218C173.932 222.191 163.849 209.808 153.442 211.332C150.808 211.718 148.321 212.988 145.75 213.787C130.042 218.668 113.802 205.646 97.755 208.404C94.1876 209.151 90.6815 210.286 87.2781 211.797C85.0941 212.677 82.816 213.629 81.2291 215.671C79.6422 217.713 79.0383 221.206 80.5416 223.341C76.398 223.76 72.2268 223.273 68.2217 221.903C69.3048 222.643 70.2058 223.726 70.8301 225.041C71.4545 226.355 71.7792 227.851 71.7702 229.373C65.3005 230.668 59.0021 233.027 53.0445 236.384C54.1564 238.655 55.4551 240.779 56.9203 242.724L48.7298 249.185C51.4969 250.042 52.9276 254.675 51.3184 257.569C54.1876 256.001 55.9658 251.947 59.0339 251.124C61.044 250.586 63.0892 251.596 64.9961 252.544C66.9029 253.493 68.9987 254.412 70.9727 253.701C72.9466 252.989 74.4026 249.846 73.1483 247.843C81.5856 244.82 90.3053 243.147 99.0914 242.866C99.7692 242.762 100.457 242.922 101.056 243.324C102.2 244.298 101.899 246.403 101.837 248.11C101.776 249.818 102.86 252.062 104.103 251.293C102.64 252.85 103.89 255.781 105.293 257.418C106.696 259.056 108.387 261.315 107.528 263.445C107.304 264.001 106.924 264.446 106.708 265.006C106.071 266.662 107.082 268.592 108.275 269.692C109.467 270.791 110.927 271.56 111.756 273.082C112.584 274.605 112.208 277.27 110.727 277.483L106.517 270.92C105.079 272.751 104.093 275.045 103.674 277.537C108.137 282.018 108.809 291.138 105.072 296.529C103.162 299.284 100.446 300.958 98.0759 303.107C95.7056 305.256 93.5123 308.316 93.5182 311.934C93.5285 318.185 93.1126 323.992 95.02 329.787C98.5374 340.473 102.598 350.876 107.179 360.936C108.382 363.578 109.936 366.473 112.373 366.928C109.293 357.722 106.521 348.373 104.056 338.881C105.662 338.889 107.517 339.045 108.458 340.642C109.237 341.965 109.07 343.763 109.312 345.368C109.62 346.923 110.134 348.406 110.832 349.757L125.538 381.923C126.757 384.589 128.155 387.452 130.485 388.531C131.975 389.222 133.698 389.092 135.069 390.086C136.144 390.865 136.868 392.248 137.963 392.982C141.061 395.057 145.369 391.077 148.264 393.555C149.092 394.263 149.618 395.389 150.381 396.2C153.055 399.043 157.441 397.141 160.528 399.262C162.517 400.629 163.548 403.363 164.609 405.84C167.267 412.046 171.567 418.126 177.263 418.62C179.052 418.775 180.879 418.358 182.628 418.847C184.377 419.336 186.099 421.21 185.818 423.385C185.337 427.115 186.837 431.198 186.434 434.942C185.7 441.76 177.824 444.757 177.147 451.584C176.999 453.079 177.231 454.622 176.941 456.085C176.586 457.879 175.489 459.339 175.099 461.121C174.361 464.499 176.332 467.861 178.497 470.134C180.662 472.407 183.245 474.366 184.429 477.548C185.68 480.91 185.065 484.831 185.472 488.494C186.36 496.491 191.985 502.419 197.774 506.242C199.538 507.406 201.432 508.534 202.573 510.554C204.063 513.191 203.915 516.668 204.412 519.819C205.631 527.535 210.921 533.894 211.071 541.752C211.178 547.337 208.65 552.404 207.139 557.674C205.723 562.724 205.211 568.089 205.637 573.403C206.063 578.718 207.418 583.857 209.609 588.47C210.738 590.813 212.09 593.022 212.889 595.562C214.315 600.094 213.853 605.246 215.168 609.828C216.906 615.887 221.684 620.891 221.226 627.29C223.395 632.821 228.185 635.539 233.001 637.185L241.632 640.135C243.285 640.7 245.012 641.269 246.695 640.86C248.378 640.451 249.984 638.735 249.941 636.629C245.708 635.457 241.339 634.211 237.85 631.044C234.361 627.876 231.971 622.236 233.295 617.162C233.908 614.809 235.214 612.092 233.973 610.148C233.262 609.035 231.962 608.744 231.16 607.729C229.909 606.145 230.339 603.483 231.238 601.573C232.137 599.663 233.437 597.956 233.8 595.795C233.983 594.586 233.86 593.337 233.449 592.216C233.038 591.095 232.357 590.155 231.498 589.523C233.099 588.781 234.554 587.634 235.771 586.157C236.894 584.581 237.413 582.152 236.529 580.361C239.154 580.77 242.252 580.97 243.975 578.505C245.351 576.536 245.257 573.593 244.713 571.086C244.169 568.579 243.251 566.144 243.222 563.55C249.276 563.903 255.344 563.65 261.365 562.795C260.494 559.194 258.516 556.152 255.849 554.312C258.576 553.745 261.06 549.737 261.922 546.51C262.783 543.282 262.563 539.767 262.031 536.435C261.826 535.577 261.798 534.67 261.949 533.795C262.256 532.593 263.218 531.86 264.107 531.233L277.643 521.687C278.45 521.191 279.182 520.527 279.807 519.725C281.225 517.68 281.015 514.592 280.289 512.058C279.563 509.524 278.4 507.141 278.12 504.477C277.284 496.509 284.23 490.792 286.574 483.291C287.494 480.348 287.681 477.148 287.859 474.003C288.051 470.625 288.065 466.701 285.953 464.524C283.928 462.437 280.764 462.903 278.645 460.962C276.703 459.182 276.033 455.726 273.91 454.289C271.983 452.983 269.567 453.814 267.423 453.2C263.65 452.119 261.275 446.778 257.42 446.283C255.246 446.004 252.785 447.31 251.002 445.754C249.432 444.384 249.369 441.63 249.07 439.293C248.546 435.661 247.128 432.313 245.007 429.7C242.887 427.088 240.165 425.336 237.209 424.681C234.967 424.239 232.526 424.407 230.619 422.894C228.687 421.362 227.802 418.494 226.284 416.372C223.839 412.952 219.988 411.737 216.38 410.696L201.706 406.46C199.101 405.708 195.744 405.309 194.346 408.111C193.932 409.178 193.639 410.309 193.475 411.474C192.951 413.58 191.897 415.428 190.464 416.753C189.031 418.077 187.293 418.81 185.5 418.845C184.27 416.269 182.278 414.376 179.939 413.561C178.451 413.052 176.858 412.995 175.439 412.246C174.666 411.782 173.978 411.13 173.418 410.33C172.857 409.529 172.435 408.596 172.179 407.588C171.922 406.58 171.835 405.518 171.924 404.468C172.013 403.417 172.276 402.4 172.696 401.479C173.542 399.629 173.869 397.489 173.626 395.389C173.383 393.288 172.584 391.345 171.352 389.857C168.856 387.106 165.246 386.442 161.9 386.717C161.024 384.369 162.489 381.72 164.068 380.013C165.647 378.307 167.565 376.629 167.909 374.081C168.449 370.073 164.284 367.028 161.122 368.223C157.96 369.418 155.941 373.19 154.607 376.908C153.842 379.042 153.191 381.288 151.983 383.087C150.776 384.886 148.831 386.173 146.992 385.596C144.388 384.779 143.382 380.98 142.806 377.757C142.032 373.432 141.255 369.047 141.417 364.623C141.579 360.2 142.793 355.658 145.45 352.663C149.778 347.783 156.419 348.262 162.26 349.04C160.88 347.131 161.221 343.913 162.698 342.115C163.478 341.265 164.414 340.661 165.427 340.355C166.44 340.05 167.498 340.052 168.509 340.362C170.27 340.812 171.856 341.976 173.011 343.668C174.672 346.153 175.144 349.509 176.398 352.33C177.653 355.151 180.475 357.557 182.784 356.043C184.779 354.736 185.095 351.34 184.599 348.631C184.102 345.922 183.048 343.288 183.228 340.521C183.571 335.24 188.029 332.061 191.963 329.886C195.897 327.711 200.402 324.787 201.025 319.544C201.046 318.518 201.204 317.503 201.492 316.539C201.928 315.687 202.534 314.987 203.253 314.505C214.734 305.188 226.407 295.757 239.529 290.666C240.212 290.401 240.292 290.695 240.988 290.488C241.962 289.797 241.316 287.885 240.383 287.115C239.449 286.345 238.201 285.754 237.964 284.404C237.79 283.411 238.267 282.437 238.39 281.433C238.694 278.966 236.291 276.689 234.425 277.675C233.371 275.961 235.457 273.969 237.143 273.399C242.208 271.687 247.406 270.645 252.651 270.288C253.256 270.17 253.876 270.3 254.416 270.657C255.296 271.406 255.184 273.125 254.56 274.194C253.935 275.264 252.964 275.935 252.186 276.84C251.336 277.857 250.73 279.141 250.434 280.552C250.137 281.962 250.162 283.446 250.506 284.841C253.244 286.551 256.22 288.312 259.253 287.709C262.285 287.107 264.977 282.923 263.551 279.581C262.224 276.47 258.237 275.768 257.551 272.358C256.749 268.365 261.352 264.814 260.315 260.903C259.861 259.19 258.47 258.182 257.404 256.945C256.144 255.429 255.287 253.48 254.945 251.355C254.604 249.23 254.793 247.027 255.49 245.037C253.752 245.412 251.967 245.271 250.283 244.623C248.599 243.976 247.066 242.843 245.813 241.318C243.498 238.45 241.651 233.925 238.365 234.053C235.348 234.171 232.75 238.492 229.93 237.174C229.236 236.85 228.505 236.189 227.832 236.576C227.612 236.752 227.427 236.987 227.292 237.263C227.156 237.539 227.073 237.85 227.05 238.171C226.333 242.379 227.566 247.173 225.699 250.809C223.666 254.766 218.965 255.314 216.502 258.882C215.164 260.819 214.646 263.429 213.417 265.471C212.187 267.513 209.578 268.811 208.103 267.032C208.828 265.201 209.026 263.123 208.665 261.137C208.303 259.15 207.404 257.373 206.113 256.096C204.744 254.998 203.267 254.116 201.718 253.471C199.988 252.571 198.342 251.445 196.809 250.111C196.041 249.542 195.417 248.722 195.006 247.743C194.682 246.516 194.726 245.188 195.13 243.998C195.878 241.364 197.197 239.031 198.946 237.251C200.695 235.471 202.807 234.312 205.053 233.898C207.018 233.569 209.304 233.685 210.604 231.847C211.291 230.875 211.652 229.405 212.651 229.01C213.289 228.852 213.952 228.952 214.541 229.296L221.872 232.464C222.69 232.918 223.591 233.101 224.484 232.995C224.927 232.922 225.331 232.645 225.615 232.221C225.899 231.798 226.042 231.258 226.015 230.71C225.781 229.215 223.908 228.497 224.078 226.989C224.174 226.5 224.388 226.059 224.692 225.723C227.338 222.264 230.574 219.567 234.168 217.825C237.762 216.082 241.625 215.336 245.481 215.641C246.407 217.508 244.943 219.718 243.726 221.311C242.508 222.904 241.529 225.751 243.002 226.977C243.605 227.355 244.277 227.541 244.954 227.517C246.759 227.817 248.513 228.47 250.15 229.452C252.683 230.806 255.168 232.287 257.605 233.896C257.389 231.924 257.184 229.846 257.793 228.001C258.402 226.157 260.132 224.71 261.644 225.429C263.1 226.121 263.847 228.489 265.399 228.706C267.469 228.996 268.286 225.24 267.421 222.913C266.557 220.585 264.845 218.636 264.702 216.083C264.606 214.361 265.139 212.226 264.019 211.183C263.621 210.87 263.168 210.675 262.698 210.614L234.728 204.294C233.068 203.919 230.668 204.206 230.594 206.278C230.553 207.434 231.394 208.579 231.022 209.642C230.624 210.777 229.318 210.673 228.366 211.074C226.89 211.697 226.149 213.85 226.291 215.759C226.55 217.655 227.149 219.458 228.043 221.038C226.223 220.103 223.469 219.932 221.65 218.997Z" fill="#3F3D56"/>
<path d="M199.333 189.843C197.569 189.126 195.669 189.093 193.889 189.747C192.109 190.402 190.537 191.713 189.384 193.502C188.924 194.246 188.537 195.273 188.922 196.079C189.475 197.235 190.884 196.778 191.922 196.365C193.448 195.695 195.109 195.647 196.66 196.226C197.635 196.637 198.507 197.364 199.487 197.759C199.963 198.004 200.485 198.085 200.996 197.993C201.508 197.901 201.989 197.64 202.389 197.238C203.061 196.397 203.103 195.088 203.104 193.909C203.151 193.515 203.125 193.113 203.029 192.732C202.933 192.351 202.769 192.002 202.549 191.709C202.157 191.43 201.716 191.27 201.264 191.242C200.251 191.012 199.334 190.355 198.674 189.384" fill="#3F3D56"/>
<path d="M209.418 186.395C209.023 186.369 208.63 186.467 208.275 186.682C207.921 186.896 207.617 187.219 207.393 187.619C207.17 188.019 207.033 188.484 206.998 188.967C206.963 189.45 207.029 189.937 207.191 190.38C208.403 190.786 209.67 190.887 210.915 190.678C211.536 190.559 212.114 190.218 212.577 189.697C213.04 189.175 213.367 188.497 213.517 187.748C212.051 188.075 210.539 187.721 209.275 186.753" fill="#3F3D56"/>
<path d="M243.255 180.637C239.956 181.498 236.751 182.835 233.707 184.619C235.142 185.297 236.362 186.522 237.187 188.115C238.011 189.708 238.398 191.584 238.289 193.467C238.16 194.19 238.175 194.94 238.332 195.654C238.683 196.698 239.699 197.09 240.592 197.358C242.197 197.958 243.873 198.22 245.549 198.135C246.388 198.081 247.202 197.771 247.919 197.234C248.635 196.696 249.231 195.947 249.653 195.056C249.895 194.21 250.18 193.382 250.506 192.579C252.647 188.575 259.008 193.417 261.307 189.546C262.117 188.183 262.043 186.131 263.099 185.05C263.645 184.58 264.278 184.283 264.94 184.187C269.564 183.059 274.234 182.243 278.93 181.741C281.155 181.503 284.055 180.522 284.073 177.779C275.692 175.758 267.003 177.194 259.355 181.863C256.599 183.557 252.955 187.122 250.301 184.875C249.307 184.034 249.356 181.769 247.989 180.823C246.59 179.856 244.739 180.249 243.255 180.637Z" fill="#3F3D56"/>
<path d="M270.662 186.93L274.596 187.858C273.872 187.819 273.149 187.97 272.476 188.3C271.804 188.631 271.196 189.134 270.694 189.776C270.192 190.418 269.807 191.185 269.565 192.024C269.323 192.863 269.23 193.755 269.291 194.642C272.975 196.154 276.992 194.683 280.872 194.884C284.753 195.085 289.269 198.489 288.606 203.188C288.406 204.61 287.737 206.03 288.085 207.407C288.329 208.373 289.022 209.058 289.413 209.947C290.229 211.8 289.577 214.144 288.547 215.828C287.517 217.513 286.133 218.857 285.229 220.647C282.981 225.099 284.258 230.855 285.597 235.829C285.985 237.708 286.7 239.462 287.693 240.968C289.678 243.559 292.911 243.784 295.807 243.836C297.915 243.874 300.33 243.746 301.663 241.741C303.403 239.123 302.186 235.038 303.332 231.965C304.372 229.174 307.023 227.977 309.425 227.128C313.826 225.572 318.31 224.25 322.47 221.9C327.636 218.983 332.464 214.436 338.142 214.06C339.735 213.955 341.367 214.185 342.902 213.65C344.436 213.114 345.893 211.485 345.777 209.531C345.678 207.862 344.528 206.636 343.629 205.378C342.731 204.119 342.025 202.184 342.851 200.853L357.733 197.44C356.678 193.909 355.856 189.26 358.281 186.962C359.155 186.133 360.326 185.801 361.071 184.799C362.34 183.091 361.702 180.148 360.237 178.695C358.772 177.242 356.791 176.905 354.914 176.714C348.388 176.048 341.825 176.488 335.287 176.928C322.506 177.788 309.725 178.648 296.944 179.509C294.372 179.682 291.401 179.417 289.041 180.495C287.044 181.408 285.623 183.083 283.338 183.671C279.121 184.758 274.479 184.022 270.662 186.93Z" fill="#3F3D56"/>
<path d="M341.139 225.114C340.739 225.036 340.329 225.151 339.994 225.433C339.773 225.732 339.642 226.115 339.622 226.517C339.368 228.296 339.67 230.126 340.469 231.643C340.875 232.386 341.437 232.983 342.095 233.37C342.753 233.757 343.483 233.921 344.21 233.845C345.981 233.568 347.287 231.712 348.915 230.807C351.425 229.412 362.085 227.238 354.711 222.347C352.17 220.661 350.528 222.149 348.525 223.259C346.246 224.691 343.693 225.332 341.139 225.114Z" fill="#3F3D56"/>
<path d="M405.724 184.169C404.863 184.601 404.143 185.37 403.675 186.358C403.46 186.86 403.41 187.444 403.536 187.989C403.661 188.534 403.953 189 404.35 189.289C404.672 189.432 405.013 189.498 405.355 189.484L408.855 189.613C410.343 189.667 412.2 190.056 412.6 191.816C412.897 193.123 412.233 194.802 413.034 195.736C413.378 196.063 413.792 196.261 414.225 196.307C415.378 196.67 416.583 196.718 417.753 196.446C420.3 195.607 418.961 193.698 419.764 191.998C420.991 189.397 420.779 190.972 422.942 189.481C424.539 188.38 426.603 186.383 425.27 183.578C422.951 178.698 409.145 182.073 405.724 184.169Z" fill="#3F3D56"/>
<path d="M474.823 181.716L472.79 182.049C468.206 182.8 463.596 183.558 459.181 185.248C461.092 186.176 463.097 186.78 465.141 187.044C466.266 187.112 467.384 187.307 468.48 187.627C470.43 188.34 472.395 190.181 474.279 189.238C475.447 188.653 475.828 187.16 476.796 186.368C477.464 185.821 479.998 184.937 480.282 184.385C482.572 179.925 476.584 181.427 474.823 181.716Z" fill="#3F3D56"/>
<path d="M483.75 193.061C481.034 194.926 478.515 197.191 476.248 199.807C475.293 200.91 474.317 202.281 474.404 203.887C474.519 206.022 476.371 207.26 477.975 208.094L484.474 211.473C485.262 210.109 484.541 208.225 483.726 206.884C482.911 205.543 481.943 203.992 482.303 202.378C482.714 200.537 484.542 199.91 486.075 199.592C488.573 199.076 495.312 199.117 494.502 194.173C493.548 188.349 486.257 191.34 483.75 193.061Z" fill="#3F3D56"/>
<path d="M482.443 522.7C481.824 524.9 481.765 527.491 482.836 529.411C484.036 531.566 486.44 532.369 488.519 531.822C490.59 531.146 492.435 529.689 493.796 527.656C495.04 525.954 496.064 524.026 496.831 521.941C497.901 518.692 498.656 515.3 499.08 511.834L501.098 498.825C501.549 495.917 501.531 487.004 497.18 489.908C495.991 490.701 493.238 496.965 491.993 498.742C489.747 501.943 489.45 505.049 488.268 508.928C486.787 513.786 483.812 517.835 482.443 522.7Z" fill="#3F3D56"/>
<path d="M712.286 589.271C710.862 588.589 709.48 587.781 708.151 586.854C706.818 591.354 706.11 596.096 706.055 600.883L715.799 594.113C717.264 593.094 718.926 591.679 718.894 589.611C718.908 589.356 718.864 589.101 718.77 588.873C718.675 588.645 718.532 588.453 718.356 588.316C718.139 588.21 717.903 588.176 717.672 588.218C716.228 588.366 714.91 589.239 713.547 589.846C712.184 590.453 710.591 590.774 709.34 589.873" fill="#3F3D56"/>
<path d="M763.687 593.291C762.617 593.648 761.573 594.109 760.562 594.668C758.326 596.065 756.805 598.718 754.793 600.558C752.867 602.319 750.549 603.286 748.274 604.226C747.604 604.953 747.912 606.416 748.639 607.054C749.42 607.6 750.316 607.847 751.212 607.764C753.576 607.828 756.067 607.856 758.137 606.454C759.304 605.525 760.396 604.461 761.398 603.277C763.819 600.796 766.726 599.16 769.604 597.578C770.651 597.092 771.62 596.381 772.464 595.478C774.273 593.29 774.4 589.915 771.792 589.17C769.685 588.569 765.693 592.494 763.687 593.291Z" fill="#3F3D56"/>
<path d="M786.398 575.074C786.515 573.569 786.352 572.05 785.921 570.634C785.49 569.217 784.803 567.939 783.911 566.896C783.884 569.908 783.81 573.117 782.43 575.608C781.447 577.382 779.906 578.581 778.829 580.271C777.752 581.962 777.274 584.641 778.537 586.125C779.345 586.879 780.328 587.295 781.343 587.311C783.857 587.675 786.768 587.877 788.531 585.646C789.494 584.429 789.962 582.626 791.136 581.73C791.573 581.505 791.964 581.162 792.279 580.726C792.764 579.78 791.993 578.533 791.126 578.192C790.259 577.851 789.304 578.011 788.433 577.687C787.561 577.364 786.762 576.16 787.209 575.187" fill="#3F3D56"/>
<path d="M746.033 464.642C744.714 465.036 743.348 465.135 742 464.934C739.762 464.429 738.019 462.357 736.212 460.658C731.916 456.641 726.693 454.401 721.295 454.258C716.384 454.144 711.427 455.778 706.604 454.638C706.919 456.79 708.419 458.405 710.019 459.364C711.619 460.324 713.385 460.806 714.993 461.746C717.568 463.267 719.611 465.876 720.746 469.096C721.264 470.58 721.59 472.195 722.374 473.492C723.978 476.141 727.017 476.723 729.699 476.506C733.196 476.223 736.849 474.988 740.102 476.588C742.591 477.812 744.372 480.487 746.45 482.567C748.528 484.647 751.455 486.191 753.842 484.69C751.363 483.704 749.206 481.772 747.685 479.175C746.164 476.577 745.359 473.451 745.387 470.252C747.727 470.517 754.468 470.414 754.105 465.531C753.798 461.393 748.043 464.195 746.033 464.642Z" fill="#3F3D56"/>
<path d="M715.417 498.313C715.833 495.514 718.105 493.043 717.397 490.334C716.908 488.461 715.139 487.536 713.537 487.49C711.936 487.443 710.362 488.029 708.761 488.085C707.718 488.017 706.673 488.035 705.633 488.139C702.454 488.781 700.494 492.873 697.498 494.327C695.676 495.212 693.63 495.043 691.735 495.655C687.434 497.043 684.713 502.033 681.707 506.057C676.849 512.529 670.521 517.061 663.541 519.065C661.096 519.76 658.467 520.205 656.524 522.155C653.95 524.738 653.316 529.165 652.744 533.186C651.161 544.289 648.743 555.189 645.521 565.744L655.733 567.345C657.675 567.649 659.686 567.947 661.557 567.241C662.917 566.611 664.204 565.769 665.388 564.735C669.936 561.268 675.027 559.012 680.33 558.112C683.004 557.662 685.808 557.579 688.318 558.8C690.827 560.02 692.98 562.788 693.19 566.093C694.276 565.678 695.432 565.633 696.537 565.963C697.641 566.293 698.652 566.985 699.461 567.965C701.06 569.966 702.107 572.533 702.454 575.304C702.723 577.019 702.993 579.075 704.289 579.795C705.347 580.382 706.56 579.75 707.717 579.636C711.643 579.25 714.901 584.872 718.76 583.904C722.899 582.865 723.915 575.254 727.953 573.73C730.272 572.854 733.525 573.919 734.635 571.27C735.614 568.935 733.661 566.241 733.863 563.627C734.111 560.408 737.203 559.041 739.587 557.668C747.805 552.933 751.704 539.351 747.722 529.333C745.363 523.398 740.72 518.726 739.863 512.206C739.203 507.189 740.813 501.34 738.209 497.391C736.884 495.382 734.64 494.274 733.852 491.877C733.355 490.368 733.555 488.656 733.288 487.062C733.021 485.469 731.888 483.802 730.607 484.215C726.886 485.414 725.699 499.527 723.707 502.956C720.679 508.168 714.463 504.735 715.417 498.313Z" fill="#3F3D56"/>
<path d="M646.65 469.974C645.379 469.536 643.991 469.105 642.772 469.731C641.554 470.356 640.843 472.553 641.82 473.642C649.469 473.277 657.165 472.913 664.749 474.189C673.487 475.658 682.134 479.299 690.91 478.228C685.897 476.412 680.801 474.959 675.649 473.879L667.057 471.864C664.752 471.271 662.424 470.829 660.081 470.54C655.179 470.043 651.469 471.634 646.65 469.974Z" fill="#3F3D56"/>
<path d="M654.308 437.262C653.673 437.197 652.886 437.141 652.558 437.812C652.244 438.452 652.603 439.298 652.434 440.017C652.204 440.998 651.157 441.249 650.333 441.115C649.508 440.981 648.616 440.662 647.886 441.15C647.515 441.46 647.237 441.91 647.092 442.432C646.948 442.954 646.945 443.519 647.084 444.042C647.382 445.082 647.866 446.028 648.498 446.811C649.578 448.483 650.809 449.999 652.168 451.33C654.796 453.713 658.358 454.861 660.014 458.32C660.247 458.991 660.606 459.584 661.062 460.052C661.856 460.671 662.893 460.2 663.749 459.72L666.749 458.037C667.289 457.798 667.772 457.395 668.151 456.866C668.837 455.724 668.416 454.1 667.84 452.87C667.265 451.64 666.529 450.367 666.652 448.957C666.872 446.442 669.505 445.48 670.588 443.328C671.679 441.16 670.969 438.365 671.095 435.82C671.242 432.844 672.765 428.973 670.315 426.75C668.232 424.86 666.242 426.606 664.747 428.692C661.594 433.092 660.103 437.857 654.308 437.262Z" fill="#3F3D56"/>
<path d="M672.517 392.795C673.541 395.203 675.676 396.64 676.793 398.985C678.003 401.527 677.866 404.811 679.179 407.275C680.526 409.803 683.238 411.145 683.993 414.02C684.818 417.159 682.946 420.974 684.438 423.716C684.717 424.165 685.068 424.537 685.469 424.81C685.871 425.083 686.314 425.25 686.771 425.302C687.229 425.354 687.689 425.288 688.125 425.11C688.56 424.931 688.961 424.643 689.301 424.265C689.93 423.424 690.266 422.314 690.239 421.173C690.211 420.031 689.822 418.948 689.153 418.154C688.27 417.165 687.002 416.738 686.264 415.583C685.88 414.916 685.624 414.151 685.516 413.345C685.114 411.021 685.178 408.612 685.703 406.325C685.901 405.744 685.951 405.104 685.847 404.488C685.515 403.303 684.208 403.219 683.291 402.669C681.208 401.421 681.258 397.81 681.622 394.999C681.38 396.871 675.95 393.687 675.382 392.627C674.252 390.521 674.867 386.458 674.643 384.131C672.205 385.573 671.265 389.851 672.517 392.795Z" fill="#3F3D56"/>
<path d="M617.817 429.845C616.815 428.467 615.306 427.026 613.962 427.857C612.937 428.491 612.655 430.232 613.057 431.552C613.546 432.835 614.3 433.938 615.243 434.753C618.043 437.588 621.058 440.147 623.501 443.444C627.872 449.342 630.187 457.302 634.941 462.736C635.897 463.996 637.162 464.836 638.544 465.13C639.929 465.288 641.484 464.199 641.643 462.503C641.774 461.105 640.981 459.854 640.205 458.818C638.359 456.351 636.337 454.081 634.594 451.504C633.788 450.514 633.282 449.216 633.159 447.825C633.15 446.437 634.181 444.985 635.276 445.329C633.944 444.911 632.956 442.186 631.002 441.674C629.369 441.246 628.974 442.488 627.03 441.464C623.322 439.512 620.414 433.414 617.817 429.845Z" fill="#3F3D56"/>
<path d="M704.931 295.708C703.867 295.32 702.822 294.861 701.799 294.334C699.046 293.32 695.404 295.804 695.771 299.304C696.015 301.63 697.777 303.198 698.751 305.215C700.194 308.207 699.81 312.001 699.051 315.352C698.865 316.389 698.51 317.37 698.009 318.235C697.309 319.15 696.471 319.889 695.543 320.414C691.825 322.974 688.547 326.394 685.889 330.485C685.6 330.863 685.399 331.329 685.306 331.835C685.175 333.016 686.142 333.877 686.689 334.863C687.904 337.052 687.026 339.999 687.146 342.644C687.128 343.018 687.187 343.392 687.319 343.73C687.452 344.068 687.652 344.358 687.901 344.574C688.633 345.031 689.501 344.255 689.898 343.372C691.215 340.442 690.223 335.738 692.694 334.325C693.161 334.058 693.728 333.946 694.04 333.441C694.535 332.642 694.057 331.457 694.308 330.501C694.684 329.066 696.283 329.001 697.51 329.065C699.624 329.174 701.736 328.828 703.753 328.044C704.544 327.813 705.263 327.302 705.82 326.575C706.559 325.443 706.493 323.833 706.346 322.394C705.606 315.219 703.755 308.284 700.893 301.964C703.063 302.304 705.425 302.599 707.298 301.21C708.347 300.432 709.605 298.106 709.084 296.523C708.262 294.019 706.776 296.127 704.931 295.708Z" fill="#3F3D56"/>
<path d="M426.664 335.169C426.924 336.88 427.179 338.681 426.722 340.329C426.266 341.976 424.829 343.353 423.473 342.848C422.421 342.456 421.813 341.157 421.065 340.166C416.909 334.656 407.531 337.846 404.964 331.029C403.916 328.247 404.628 324.914 403.913 321.977C403.462 320.28 402.565 318.815 401.362 317.811C400.16 316.808 398.72 316.324 397.269 316.434C395.945 316.669 394.657 317.141 393.445 317.836C385.327 321.828 376.804 324.446 368.111 325.617C366.459 325.74 364.825 326.105 363.243 326.704C359.674 328.293 357.235 332.357 355.5 336.503C353.764 340.65 352.483 345.139 350.156 348.822C347.71 352.694 344.283 355.405 341.087 358.338C339.855 359.312 338.83 360.632 338.095 362.188C337.402 363.935 337.441 365.967 337.495 367.909L338.148 391.498C338.232 394.532 338.338 397.675 339.443 400.39C340.824 403.78 343.552 406.001 345.445 408.996C347.376 412.074 348.382 415.877 348.293 419.761C348.253 421.323 348.126 423.17 349.117 424.151C349.719 424.63 350.424 424.879 351.142 424.866L377.127 427.477C381.698 427.937 386.764 428.692 389.748 432.968C391.157 434.987 392.288 437.889 394.446 438.106C395.371 438.198 396.271 437.732 397.197 437.642C399.532 437.415 401.583 439.591 402.878 441.988C404.837 445.642 405.727 450.005 405.4 454.361C405.188 457.096 404.497 459.754 404.349 462.495C403.782 472.924 410.982 481.984 411.121 492.435C411.203 498.582 408.827 504.325 406.51 509.775C410.249 516.731 407.187 525.994 408.676 534.126C410.089 541.841 415.327 547.881 416.632 555.624C417.23 559.169 417.265 563.531 419.81 565.357C420.927 566.026 422.166 566.33 423.406 566.241C430.889 566.35 438.286 564.282 444.993 560.207C448.14 558.288 451.403 555.425 451.952 551.163C452.396 547.726 450.976 543.882 452.421 540.888C454.123 537.36 458.485 537.639 460.989 534.927C465.053 530.526 461.884 522.132 463.531 515.794C465.011 510.096 470.105 507.069 472.631 501.955C473.625 499.756 474.338 497.382 474.746 494.917C475.902 489.026 476.623 483.018 476.897 476.968C476.964 473.292 477.185 469.622 477.558 465.973C480.281 445.202 497.004 431.293 502.433 411.339C502.952 409.433 503.195 406.895 501.815 405.816C500.996 405.337 500.068 405.217 499.186 405.478L487.207 407.333C485.719 407.563 484.142 407.778 482.776 407.02C481.409 406.261 480.43 404.138 481.155 402.526C483.189 398.001 479.004 392.282 477.145 387.645C472.138 375.158 466.175 363.283 459.337 352.182C458.899 351.611 458.625 350.88 458.556 350.1L461.956 350.239C460.808 345.183 458.915 339.649 454.914 337.8C452.66 336.757 450.163 337.118 447.758 337.279C440.868 337.741 433.482 336.464 426.664 335.169Z" fill="#3F3D56"/>
<path d="M447.763 221.218C449.566 223.569 451.586 226.061 454.195 226.471C458.802 227.195 462.114 221.345 464.223 216.263C464.301 217.559 464.788 218.766 465.58 219.627C466.371 220.489 467.405 220.938 468.462 220.878C469.599 220.643 470.685 220.122 471.65 219.347C480.778 213.222 491.003 209.976 501.405 209.902C501.305 208.934 501.5 207.956 501.953 207.155C502.407 206.354 503.085 205.787 503.859 205.564C505.974 205.049 507.879 207.295 508.899 209.627C509.919 211.96 510.555 214.663 512.176 216.409C513.797 218.155 516.935 218.079 517.576 215.55C518.19 213.123 516.131 211.053 514.42 209.622C512.71 208.192 510.906 205.543 512.059 203.431C520.799 201.056 529.593 198.671 538.536 198.199C540.059 198.264 541.576 197.943 542.993 197.256C544.357 196.434 545.441 194.568 545.074 192.758C543.123 193.321 541.079 193.158 539.203 192.289C537.327 191.421 535.704 189.885 534.542 187.88C546.951 186.622 560.15 185.55 571.148 192.721C572.468 196.2 565.741 199.094 567.541 202.232C568.115 203.233 569.265 203.35 570.262 203.373C577.904 203.547 585.591 203.718 593.147 202.301C595.908 201.783 598.697 201.052 601.47 201.472C606.087 202.171 610.037 205.955 614.58 207.188C616.429 207.69 618.502 207.707 620.061 206.387C621.619 205.066 622.289 202.059 621.012 200.342C625.289 195.195 632.388 196.47 638.031 198.935C643.674 201.399 649.02 205.374 654.992 205.923C659.275 206.317 663.617 204.903 667.849 205.802C670.509 206.367 672.984 207.819 675.583 208.712C680.499 210.4 685.699 210.044 690.803 210.125C703.825 210.34 716.706 213.483 728.806 219.398C730.38 220.027 731.823 221.074 733.031 222.463C734.157 223.943 734.731 226.244 733.974 228.044L721.471 225.801C722.649 228.649 725.697 229.134 728.172 230.116C730.647 231.099 733.213 234.455 731.726 237.076C729.044 236.027 726.614 239.32 725.259 242.349C723.904 245.378 722.253 249.006 719.443 249.191C716.926 249.356 713.882 246.725 712.242 249.074C714.508 252.585 716.449 256.395 718.028 260.433C719.649 264.579 720.803 269.803 718.613 273.534C718.268 274.199 717.745 274.697 717.134 274.941C715.345 275.497 714.183 272.81 712.9 271.181C711.283 269.129 708.838 268.547 706.649 267.585C704.46 266.622 702.153 264.728 701.982 261.88C701.876 260.109 702.637 258.462 703.199 256.824C704.142 254.064 704.554 251.074 704.404 248.086C704.281 245.683 703.732 243.182 702.327 241.503C700.921 239.824 698.494 239.291 696.985 240.829C696.28 241.547 695.716 242.695 694.802 242.738C693.186 242.814 691.945 239.355 690.645 240.535C690.798 241.793 690.586 243.077 690.045 244.163C686.166 248.305 680.207 246.553 675.206 248.016C672.828 248.852 670.551 250.073 668.436 251.647C667.644 252.062 666.971 252.756 666.501 253.641C665.876 255.131 666.565 257.039 667.665 258.029C668.832 258.908 670.143 259.458 671.504 259.638C677.601 261.056 683.786 263.251 688.6 268.06C693.413 272.868 696.57 280.817 695.046 288.203L683.023 274.096C683.48 280.02 683.739 285.959 683.801 291.915C683.879 293.078 683.748 294.248 683.42 295.342C682.563 297.667 680.24 298.449 678.204 298.962C677.638 299.095 677.101 299.372 676.628 299.777C676.155 300.182 675.758 300.706 675.462 301.313C675.166 301.92 674.977 302.597 674.909 303.3C674.841 304.002 674.895 304.715 675.067 305.39C675.791 308.285 677.594 310.542 679.245 312.791C680.897 315.04 682.522 317.596 682.738 320.612C682.954 323.629 681.101 327.028 678.641 326.819C676.776 326.66 675.392 324.61 674.597 322.532C673.801 320.455 673.328 318.141 672.133 316.376C668.516 311.034 660.39 313.323 657.15 307.627C656.324 308.778 655.751 310.169 655.486 311.668C655.22 313.166 655.272 314.724 655.634 316.191C657.142 315.033 659.206 316.109 660.338 317.793C661.471 319.477 662.005 321.636 662.895 323.527C664.095 326.08 666.006 328.342 666.173 331.282C666.129 332.394 666.144 333.508 666.219 334.617C666.516 336.399 667.743 337.678 668.593 339.167C670.571 342.631 670.473 347.391 669.198 351.322C667.923 355.253 665.633 358.538 663.364 361.722C659.401 367.285 655.357 372.815 650.659 377.434C649.318 378.752 647.887 380.048 647.053 381.891C646.218 383.734 646.175 386.32 647.458 387.722C646.54 387.778 644.893 388.333 643.975 388.389C643.653 383.867 643.582 379.323 643.765 374.789C640.142 372.653 636.242 378.373 636.709 383.275C637.177 388.176 640.064 392.11 642.119 396.35C643.622 399.451 644.739 403.067 644.238 406.623C643.736 410.179 641.151 413.459 638.223 413.146C633.566 412.647 631.618 404.437 627.007 403.498C626.6 403.381 626.173 403.433 625.793 403.646C625.108 404.107 624.989 405.232 624.951 406.19C624.762 410.89 624.599 415.778 626.093 420.111C628.279 426.451 633.927 431.776 632.742 438.506C626.36 434.863 623.042 426.075 621.536 417.634C620.029 409.192 619.778 400.33 617.077 392.35C615.027 395.578 610.717 392.91 608.843 389.524C607.067 386.314 605.973 382.601 604.25 379.347C602.527 376.094 599.887 373.181 596.73 373.002C593.419 372.815 590.549 375.604 588.024 378.24C585.948 380.407 583.817 382.659 582.603 385.655C580.837 390.014 581.299 395.153 581.214 400.021C581.122 405.284 580.214 410.836 577.293 414.688C574.372 418.541 568.981 419.883 565.759 416.411C564.077 414.598 563.263 411.89 562.538 409.29C559.041 396.759 556.129 383.993 553.816 371.055C553.274 374.008 551.163 377.814 549.145 376.075C548.693 375.607 548.326 375.027 548.069 374.373C544.306 366.541 537.338 361.844 530.297 359.027C523.256 356.211 515.848 354.897 508.885 351.801C504.984 350.066 501.257 347.786 497.778 345.007C496.892 346.607 496.374 348.472 496.28 350.403C496.186 352.335 496.519 354.262 497.244 355.98C498.789 359.338 502.284 361.281 505.276 360.107C506.822 359.501 508.128 358.183 509.662 357.532C511.196 356.881 513.255 357.201 513.925 359.016C514.568 360.753 513.597 362.854 514.078 364.668C514.812 367.43 518.205 367.643 519.391 370.157C520.274 372.028 519.548 374.511 518.287 376.02C517.027 377.53 515.345 378.358 513.806 379.408C508.814 382.817 505.264 388.636 500.901 393.164C496.538 397.691 490.382 400.997 485.183 398.093C486.422 390.386 478.946 384.728 477.571 377.056C477.118 374.531 477.353 371.849 476.707 369.388C475.771 365.825 473.197 363.375 471.085 360.675C468.524 357.365 466.528 353.458 465.216 349.186C463.905 344.913 463.303 340.361 463.447 335.798C463.561 332.627 464.036 329.405 463.447 326.315C462.859 323.224 460.775 320.233 458.193 320.373C452.296 320.693 444.866 321.231 441.772 315.058C440.668 312.855 440.187 309.628 441.784 307.94C442.91 306.749 444.573 306.861 446.052 307.04L459.34 308.645C462.448 309.021 465.807 309.33 468.474 307.335C471.141 305.34 472.297 300.044 469.827 297.697C468.023 295.982 464.79 296.075 464.266 293.348C463.829 291.077 465.876 288.5 464.77 286.603C463.977 285.242 462.195 285.619 461.115 286.639C460.035 287.66 459.252 289.151 458.043 289.924C455.923 291.279 453.389 289.989 451.108 289.113C448.827 288.236 445.769 288.162 444.662 290.764C443.425 293.673 445.76 297.486 444.532 300.402C442.908 304.256 437.409 302.062 435.129 305.378C432.512 309.183 436.91 314.856 436.027 319.717C434.901 320.402 433.648 320.717 432.393 320.63C431.138 320.543 429.923 320.058 428.866 319.223C427.826 318.354 426.998 317.156 426.468 315.756C425.939 314.356 425.729 312.805 425.86 311.27C426.078 309.083 427.006 306.851 426.384 304.785C425.881 303.114 424.515 302.12 423.246 301.258L410.333 292.496C409.134 295.227 410.65 298.612 412.545 300.664C414.441 302.715 416.815 304.26 418.06 306.959C418.848 308.829 419.025 310.998 418.554 313.023C418.083 315.048 417.001 316.776 415.528 317.854C415.344 318.01 415.134 318.115 414.913 318.163C414.692 318.21 414.465 318.198 414.248 318.128C414.042 317.979 413.862 317.781 413.72 317.546C413.577 317.31 413.475 317.042 413.418 316.757C411.14 309.598 407.719 302.539 402.25 298.799C396.781 295.059 388.923 295.828 385.337 302.128C384.485 303.624 383.913 305.33 383.171 306.912C379.229 315.317 370.777 319.298 362.881 319.038C362.109 319.09 361.34 318.869 360.667 318.399C359.391 317.317 359.449 315.02 359.644 313.131L360.473 305.113C360.639 303.503 360.881 301.723 361.918 300.718C363.381 299.302 365.492 300.196 367.354 300.163C368.766 300.081 370.123 299.469 371.241 298.409C372.36 297.349 373.186 295.893 373.607 294.237C373.984 292.564 373.981 290.798 373.601 289.127C373.22 287.456 372.475 285.945 371.446 284.756C370.592 283.771 369.446 282.534 369.897 281.206C370.077 280.839 370.32 280.525 370.61 280.286C370.899 280.046 371.228 279.888 371.573 279.821C374.919 278.628 378.455 278.315 381.745 276.907C385.036 275.499 388.227 272.618 389.006 268.448C389.245 267.17 389.354 265.622 390.289 264.988C390.758 264.745 391.261 264.618 391.771 264.616C393.555 264.305 395.179 263.184 396.324 261.476C397.469 259.767 398.051 257.594 397.957 255.384C399.534 254.031 401.743 255.027 403.269 256.466C404.794 257.905 406.141 259.806 407.997 260.427C411.457 261.583 414.8 257.822 418.385 257.804C419.893 257.797 421.454 258.451 422.872 257.824C424.31 257.188 425.169 255.43 426.272 254.131C427.376 252.833 429.312 252.041 430.331 253.44L429.463 245.547C431.211 246.089 433.033 246.166 434.806 245.772C436.58 245.378 438.265 244.523 439.747 243.264L428.532 238.611C428.142 238.491 427.781 238.254 427.483 237.922C426.668 236.844 427.478 235.164 428.141 233.938C429.727 231.006 429.993 226.177 427.385 224.717C425.605 223.721 423.561 224.917 421.852 226.087L413.666 231.692C413.406 233.602 415.309 234.685 416.488 235.972C417.201 236.751 417.706 237.776 417.936 238.913C418.167 240.051 418.111 241.247 417.777 242.345C417.444 243.443 416.847 244.392 416.067 245.066C415.286 245.74 414.357 246.109 413.403 246.123C413.942 246.983 414.316 247.982 414.499 249.044C414.681 250.107 414.666 251.206 414.456 252.26L408.948 252.746C408.33 252.899 407.688 252.745 407.162 252.318C406.573 251.676 406.653 250.55 406.516 249.597C406.187 247.298 404.353 245.686 402.481 245.273C400.61 244.86 398.695 245.389 396.842 245.912C396.055 246.26 395.191 246.236 394.418 245.844C393.975 245.49 393.638 244.968 393.459 244.357C392.647 241.938 393.406 239.095 394.711 237.026C396.016 234.958 397.802 233.446 399.407 231.723C403.243 227.59 406.062 222.222 407.544 216.225C410.576 214.665 413.715 212.545 416.747 210.985C421.421 208.079 426.663 206.832 431.883 207.384L442.151 207.625C445.191 207.696 448.313 207.788 451.124 209.211C453.935 210.634 456.405 213.712 456.599 217.438C456.657 217.86 456.628 218.293 456.513 218.697C456.397 219.101 456.2 219.462 455.94 219.747C455.543 220.013 455.094 220.137 454.642 220.106C451.807 220.228 450.598 221.096 447.763 221.218Z" fill="#3F3D56"/>
<path d="M365.923 260.733C366.324 260.266 366.613 259.673 366.757 259.019C366.902 258.364 366.897 257.673 366.742 257.022C365.766 256.56 364.704 256.441 363.676 256.679C362.648 256.918 361.694 257.504 360.923 258.371C360.315 259.127 359.79 259.978 359.364 260.902C358.015 263.605 356.821 266.834 357.603 269.856C357.667 270.185 357.784 270.496 357.946 270.769C358.109 271.042 358.315 271.273 358.551 271.448C358.901 271.62 359.279 271.693 359.656 271.66C361.142 271.658 362.627 271.546 364.103 271.324C365.009 271.188 366.061 270.874 366.411 269.839C366.871 268.478 365.757 266.938 366.082 265.52C366.296 264.886 366.62 264.316 367.031 263.851C367.235 263.617 367.392 263.328 367.489 263.007C367.586 262.685 367.621 262.34 367.59 262C367.459 261.334 366.629 260.957 366.331 261.535" fill="#3F3D56"/>
<path d="M373.63 248.463C372.31 248.09 370.949 247.985 369.601 248.152C369.303 248.141 369.007 248.223 368.742 248.391C368.485 248.624 368.299 248.955 368.213 249.332C367.928 250.454 367.998 251.667 368.409 252.729C368.82 253.79 369.541 254.623 370.429 255.061C370.913 255.197 371.377 255.426 371.804 255.739C372.943 256.824 372.217 259.044 372.432 260.795C372.675 262.762 374.225 264.412 373.941 266.37C373.717 267.913 372.375 269.134 372.591 270.679C372.817 272.296 374.489 272.782 375.821 272.912C376.593 273.078 377.388 272.966 378.11 272.59C378.833 271.983 379.347 271.068 379.553 270.022C380.099 268.029 380.328 265.925 380.229 263.825C380.223 262.87 380.027 261.932 379.66 261.09C379.258 260.424 378.814 259.798 378.33 259.22C375.777 255.574 378.465 250.136 373.63 248.463Z" fill="#3F3D56"/>
<path opacity="0.8" d="M709.299 534.084C709.299 534.084 513.791 396.278 429.623 422.389C429.623 422.389 251.244 445.961 230.571 497.82C230.571 497.82 173.868 280.231 153.195 272.978" stroke="#6C63FF" stroke-width="2" stroke-miterlimit="10"/>
<path opacity="0.8" d="M230.571 497.82C263.352 390.476 558.681 271.527 558.681 271.527C516.745 284.582 429.623 422.389 429.623 422.389C429.623 422.389 245.337 257.746 153.195 272.978C153.195 272.978 558.977 289.297 709.299 534.084" stroke="#6C63FF" stroke-width="2" stroke-miterlimit="10"/>
<path d="M153.195 283.495C157.925 283.495 161.759 278.786 161.759 272.978C161.759 267.169 157.925 262.461 153.195 262.461C148.465 262.461 144.63 267.169 144.63 272.978C144.63 278.786 148.465 283.495 153.195 283.495Z" fill="#FFEECB"/>
<path d="M230.571 508.336C235.301 508.336 239.135 503.628 239.135 497.82C239.135 492.011 235.301 487.303 230.571 487.303C225.841 487.303 222.006 492.011 222.006 497.82C222.006 503.628 225.841 508.336 230.571 508.336Z" fill="#FFEECB"/>
<path d="M558.681 282.044C563.411 282.044 567.246 277.335 567.246 271.527C567.246 265.719 563.411 261.01 558.681 261.01C553.951 261.01 550.117 265.719 550.117 271.527C550.117 277.335 553.951 282.044 558.681 282.044Z" fill="#FFEECB"/>
<path d="M709.299 544.601C714.029 544.601 717.864 539.893 717.864 534.084C717.864 528.276 714.029 523.568 709.299 523.568C704.569 523.568 700.734 528.276 700.734 534.084C700.734 539.893 704.569 544.601 709.299 544.601Z" fill="#FFEECB"/>
<path d="M429.623 432.905C434.353 432.905 438.187 428.197 438.187 422.389C438.187 416.58 434.353 411.872 429.623 411.872C424.893 411.872 421.058 416.58 421.058 422.389C421.058 428.197 424.893 432.905 429.623 432.905Z" fill="#FFEECB"/>
</g>
<defs>
<clipPath id="clip0_1_9">
<rect width="842" height="768" fill="white"/>
</clipPath>
</defs>
</svg>
